HIERARCHY
ROOT mixamorig:Hips
{
	OFFSET 0.000000 104.274902 0.000000
	CHANNELS 6 Xposition Yposition Zposition Xrotation Yrotation Zrotation
	JOINT mixamorig:Spine
	{
		OFFSET 0.000000 10.181549 0.131524
		CHANNELS 6 Xposition Yposition Zposition Xrotation Yrotation Zrotation
		JOINT mixamorig:Spine1
		{
			OFFSET 0.000000 9.893990 -1.470706
			CHANNELS 3 Xrotation Yrotation Zrotation
			JOINT mixamorig:Spine2
			{
				OFFSET 0.000000 9.220787 -1.370637
				CHANNELS 3 Xrotation Yrotation Zrotation
				JOINT mixamorig:Neck
				{
					OFFSET 0.000000 16.740372 -2.049022
					CHANNELS 6 Xposition Yposition Zposition Xrotation Yrotation Zrotation
					JOINT mixamorig:Head
					{
						OFFSET 0.000000 9.617859 1.684976
						CHANNELS 6 Xposition Yposition Zposition Xrotation Yrotation Zrotation
						JOINT mixamorig:HeadTop_End
						{
							OFFSET 0.000000 22.037384 7.501072
							CHANNELS 6 Xposition Yposition Zposition Xrotation Yrotation Zrotation
							End Site
							{
								OFFSET 0.000000 23.106567 -2.828246
							}
						}
					}
				}
				JOINT mixamorig:RightShoulder
				{
					OFFSET -4.570000 11.014877 -2.160840
					CHANNELS 6 Xposition Yposition Zposition Xrotation Yrotation Zrotation
					JOINT mixamorig:RightArm
					{
						OFFSET -10.592867 -0.524796 -2.232105
						CHANNELS 3 Xrotation Yrotation Zrotation
						JOINT mixamorig:RightForeArm
						{
							OFFSET -27.841497 0.000000 -0.000002
							CHANNELS 3 Xrotation Yrotation Zrotation
							JOINT mixamorig:RightHand
							{
								OFFSET -28.328812 0.000000 -0.000001
								CHANNELS 3 Xrotation Yrotation Zrotation
								JOINT mixamorig:RightHandThumb1
								{
									OFFSET -2.464798 -1.573990 2.681911
									CHANNELS 6 Xposition Yposition Zposition Xrotation Yrotation Zrotation
									JOINT mixamorig:RightHandThumb2
									{
										OFFSET -3.244781 -1.873383 1.873376
										CHANNELS 3 Xrotation Yrotation Zrotation
										JOINT mixamorig:RightHandThumb3
										{
											OFFSET -2.646263 -1.527817 1.527818
											CHANNELS 6 Xposition Yposition Zposition Xrotation Yrotation Zrotation
											JOINT mixamorig:RightHandThumb4
											{
												OFFSET -1.994591 -1.151581 1.151575
												CHANNELS 6 Xposition Yposition Zposition Xrotation Yrotation Zrotation
												End Site
												{
													OFFSET -1.860176 -1.142715 1.365483
												}
											}
										}
									}
								}
								JOINT mixamorig:RightHandIndex1
								{
									OFFSET -9.108299 -0.517883 2.259803
									CHANNELS 6 Xposition Yposition Zposition Xrotation Yrotation Zrotation
									JOINT mixamorig:RightHandIndex2
									{
										OFFSET -3.699997 0.000000 0.000000
										CHANNELS 3 Xrotation Yrotation Zrotation
										JOINT mixamorig:RightHandIndex3
										{
											OFFSET -2.850006 0.000000 0.000000
											CHANNELS 3 Xrotation Yrotation Zrotation
											JOINT mixamorig:RightHandIndex4
											{
												OFFSET -2.772194 0.000000 0.000000
												CHANNELS 3 Xrotation Yrotation Zrotation
												End Site
												{
													OFFSET -2.772202 0.000000 -0.000484
												}
											}
										}
									}
								}
								JOINT mixamorig:RightHandMiddle1
								{
									OFFSET -9.532501 0.000000 -0.000000
									CHANNELS 6 Xposition Yposition Zposition Xrotation Yrotation Zrotation
									JOINT mixamorig:RightHandMiddle2
									{
										OFFSET -3.699997 0.000000 0.000000
										CHANNELS 3 Xrotation Yrotation Zrotation
										JOINT mixamorig:RightHandMiddle3
										{
											OFFSET -2.949997 0.000000 0.000000
											CHANNELS 3 Xrotation Yrotation Zrotation
											JOINT mixamorig:RightHandMiddle4
											{
												OFFSET -2.946594 0.000000 0.000000
												CHANNELS 3 Xrotation Yrotation Zrotation
												End Site
												{
													OFFSET -2.946602 0.000000 -0.000982
												}
											}
										}
									}
								}
								JOINT mixamorig:RightHandRing1
								{
									OFFSET -9.103600 -0.043106 -1.865100
									CHANNELS 6 Xposition Yposition Zposition Xrotation Yrotation Zrotation
									JOINT mixamorig:RightHandRing2
									{
										OFFSET -3.379303 0.000000 0.000000
										CHANNELS 3 Xrotation Yrotation Zrotation
										JOINT mixamorig:RightHandRing3
										{
											OFFSET -2.889694 0.000000 0.000000
											CHANNELS 3 Xrotation Yrotation Zrotation
											JOINT mixamorig:RightHandRing4
											{
												OFFSET -2.638802 0.000000 0.000000
												CHANNELS 3 Xrotation Yrotation Zrotation
												End Site
												{
													OFFSET -2.638802 0.000000 0.004218
												}
											}
										}
									}
								}
								JOINT mixamorig:RightHandPinky1
								{
									OFFSET -8.076698 -0.486725 -3.806299
									CHANNELS 6 Xposition Yposition Zposition Xrotation Yrotation Zrotation
									JOINT mixamorig:RightHandPinky2
									{
										OFFSET -3.600006 0.000000 0.000000
										CHANNELS 3 Xrotation Yrotation Zrotation
										JOINT mixamorig:RightHandPinky3
										{
											OFFSET -2.099998 0.000000 0.000000
											CHANNELS 3 Xrotation Yrotation Zrotation
											JOINT mixamorig:RightHandPinky4
											{
												OFFSET -2.115791 0.000000 0.000000
												CHANNELS 3 Xrotation Yrotation Zrotation
												End Site
												{
													OFFSET -2.115799 0.000000 0.000174
												}
											}
										}
									}
								}
							}
						}
					}
				}
				JOINT mixamorig:LeftShoulder
				{
					OFFSET 4.570400 11.014679 -2.160816
					CHANNELS 6 Xposition Yposition Zposition Xrotation Yrotation Zrotation
					JOINT mixamorig:LeftArm
					{
						OFFSET 10.592373 -0.524597 -2.232116
						CHANNELS 3 Xrotation Yrotation Zrotation
						JOINT mixamorig:LeftForeArm
						{
							OFFSET 27.841488 0.000000 0.000001
							CHANNELS 3 Xrotation Yrotation Zrotation
							JOINT mixamorig:LeftHand
							{
								OFFSET 28.328808 0.000000 -0.000000
								CHANNELS 3 Xrotation Yrotation Zrotation
								JOINT mixamorig:LeftHandThumb1
								{
									OFFSET 2.466103 -1.576202 2.681698
									CHANNELS 6 Xposition Yposition Zposition Xrotation Yrotation Zrotation
									JOINT mixamorig:LeftHandThumb2
									{
										OFFSET 3.243317 -1.872528 1.872530
										CHANNELS 3 Xrotation Yrotation Zrotation
										JOINT mixamorig:LeftHandThumb3
										{
											OFFSET 2.647881 -1.528763 1.528754
											CHANNELS 6 Xposition Yposition Zposition Xrotation Yrotation Zrotation
											JOINT mixamorig:LeftHandThumb4
											{
												OFFSET 1.998924 -1.154083 1.154080
												CHANNELS 6 Xposition Yposition Zposition Xrotation Yrotation Zrotation
												End Site
												{
													OFFSET 1.884041 -1.149155 1.337651
												}
											}
										}
									}
								}
								JOINT mixamorig:LeftHandIndex1
								{
									OFFSET 9.109299 -0.518005 2.259900
									CHANNELS 6 Xposition Yposition Zposition Xrotation Yrotation Zrotation
									JOINT mixamorig:LeftHandIndex2
									{
										OFFSET 3.699997 0.000000 0.000000
										CHANNELS 3 Xrotation Yrotation Zrotation
										JOINT mixamorig:LeftHandIndex3
										{
											OFFSET 2.850006 0.000000 0.000000
											CHANNELS 3 Xrotation Yrotation Zrotation
											JOINT mixamorig:LeftHandIndex4
											{
												OFFSET 2.774895 0.000000 0.000000
												CHANNELS 3 Xrotation Yrotation Zrotation
												End Site
												{
													OFFSET 2.774902 0.000000 -0.000072
												}
											}
										}
									}
								}
								JOINT mixamorig:LeftHandMiddle1
								{
									OFFSET 9.533401 0.000000 0.000000
									CHANNELS 6 Xposition Yposition Zposition Xrotation Yrotation Zrotation
									JOINT mixamorig:LeftHandMiddle2
									{
										OFFSET 3.699997 0.000000 0.000000
										CHANNELS 3 Xrotation Yrotation Zrotation
										JOINT mixamorig:LeftHandMiddle3
										{
											OFFSET 2.949997 0.000000 0.000000
											CHANNELS 3 Xrotation Yrotation Zrotation
											JOINT mixamorig:LeftHandMiddle4
											{
												OFFSET 2.952896 0.000000 0.000000
												CHANNELS 3 Xrotation Yrotation Zrotation
												End Site
												{
													OFFSET 2.952904 0.000000 0.000165
												}
											}
										}
									}
								}
								JOINT mixamorig:LeftHandRing1
								{
									OFFSET 9.104500 -0.042999 -1.865101
									CHANNELS 6 Xposition Yposition Zposition Xrotation Yrotation Zrotation
									JOINT mixamorig:LeftHandRing2
									{
										OFFSET 3.149994 0.000000 0.000000
										CHANNELS 3 Xrotation Yrotation Zrotation
										JOINT mixamorig:LeftHandRing3
										{
											OFFSET 2.950005 0.000000 0.000000
											CHANNELS 3 Xrotation Yrotation Zrotation
											JOINT mixamorig:LeftHandRing4
											{
												OFFSET 2.644302 0.000000 0.000000
												CHANNELS 3 Xrotation Yrotation Zrotation
												End Site
												{
													OFFSET 2.644302 0.000000 0.000083
												}
											}
										}
									}
								}
								JOINT mixamorig:LeftHandPinky1
								{
									OFFSET 8.077805 -0.486893 -3.806302
									CHANNELS 6 Xposition Yposition Zposition Xrotation Yrotation Zrotation
									JOINT mixamorig:LeftHandPinky2
									{
										OFFSET 3.600006 0.000000 0.000000
										CHANNELS 3 Xrotation Yrotation Zrotation
										JOINT mixamorig:LeftHandPinky3
										{
											OFFSET 2.099998 0.000000 0.000000
											CHANNELS 3 Xrotation Yrotation Zrotation
											JOINT mixamorig:LeftHandPinky4
											{
												OFFSET 2.125496 0.000000 0.000000
												CHANNELS 3 Xrotation Yrotation Zrotation
												End Site
												{
													OFFSET 2.125504 0.000000 -0.001254
												}
											}
										}
									}
								}
							}
						}
					}
				}
			}
		}
	}
	JOINT mixamorig:RightUpLeg
	{
		OFFSET -8.207800 -6.751701 -1.599544
		CHANNELS 6 Xposition Yposition Zposition Xrotation Yrotation Zrotation
		JOINT mixamorig:RightLeg
		{
			OFFSET 0.000004 -44.370152 0.345934
			CHANNELS 3 Xrotation Yrotation Zrotation
			JOINT mixamorig:RightFoot
			{
				OFFSET 0.000004 -44.423664 -3.043535
				CHANNELS 3 Xrotation Yrotation Zrotation
				JOINT mixamorig:RightToeBase
				{
					OFFSET 0.000001 -8.728691 10.710592
					CHANNELS 3 Xrotation Yrotation Zrotation
					JOINT mixamorig:RightToe_End
					{
						OFFSET 0.000000 -0.000665 9.278101
						CHANNELS 3 Xrotation Yrotation Zrotation
						End Site
						{
							OFFSET 0.000000 -0.000665 9.278103
						}
					}
				}
			}
		}
	}
	JOINT mixamorig:LeftUpLeg
	{
		OFFSET 8.207800 -6.751701 -1.599544
		CHANNELS 6 Xposition Yposition Zposition Xrotation Yrotation Zrotation
		JOINT mixamorig:LeftLeg
		{
			OFFSET 0.000004 -44.370037 0.346940
			CHANNELS 3 Xrotation Yrotation Zrotation
			JOINT mixamorig:LeftFoot
			{
				OFFSET 0.000004 -44.423611 -3.044388
				CHANNELS 3 Xrotation Yrotation Zrotation
				JOINT mixamorig:LeftToeBase
				{
					OFFSET 0.000001 -8.728690 10.710592
					CHANNELS 3 Xrotation Yrotation Zrotation
					JOINT mixamorig:LeftToe_End
					{
						OFFSET 0.000000 -0.000680 9.278101
						CHANNELS 3 Xrotation Yrotation Zrotation
						End Site
						{
							OFFSET 0.000000 -0.000680 9.278101
						}
					}
				}
			}
		}
	}
}
MOTION
Frames: 4
Frame Time: 0.033333
0.144185 103.379517 1.422842 -3.753052 -5.218521 -3.761058 -0.000000 10.181556 0.131525 3.293732 1.538088 2.729336 1.146015 0.331873 1.543643 1.123620 0.363820 1.542708 0.000001 16.740379 -2.049022 5.622662 -0.079141 0.456782 0.000000 9.617842 1.684980 -7.550890 1.373252 -0.094457 -0.000000 22.037384 7.501072 -0.000000 0.000000 0.000000 -4.570000 11.014905 -2.160842 1.188051 15.344035 14.706762 13.218297 27.520523 58.749865 -0.000007 6.795211 0.000017 -20.176905 -0.572981 6.773510 -2.464777 -1.574002 2.681908 -1.681055 -0.177081 -4.207822 12.709017 -29.838358 -16.125569 -2.646266 -1.527821 1.527814 -15.546646 -3.550181 -12.714589 -1.994595 -1.151583 1.151574 -0.000001 -0.000004 0.000002 -9.108276 -0.517870 2.259803 -0.390932 1.215757 6.807079 0.214627 -1.398889 17.443977 0.046090 -0.654339 8.059289 0.000001 0.000001 0.000002 -9.532481 -0.000003 -0.000001 -0.135893 -2.206382 14.998773 0.214462 -1.398412 17.437690 0.239796 -1.476594 18.447091 -0.000001 0.000001 0.000002 -9.103587 -0.043098 -1.865103 0.045173 -3.115300 20.461290 0.308440 -1.668276 20.948527 0.225809 -1.434044 17.897087 0.000000 0.000003 0.000004 -8.076681 -0.486726 -3.806300 0.778823 -4.842628 26.476383 0.214437 -1.398323 17.436489 0.192934 -1.327914 16.532283 0.000001 0.000002 0.000001 4.570402 11.014698 -2.160816 1.048162 -17.447650 -12.317979 3.722516 -20.056224 -69.833473 0.000000 -1.077997 -0.000004 -33.230636 -1.515672 -6.295396 2.466096 -1.576189 2.681700 -0.665286 2.158801 4.836136 11.863827 25.414255 17.049884 2.647887 -1.528764 1.528753 -13.806608 3.534022 9.046631 1.998929 -1.154073 1.154082 -0.000000 -0.000001 -0.000002 9.109289 -0.518012 2.259900 -0.403549 -0.880331 -7.564064 0.268833 1.756030 -17.407487 0.057682 0.821066 -8.038990 0.000001 0.000000 0.000003 9.533402 0.000007 -0.000000 -0.069102 2.691628 -15.695903 0.268744 1.755804 -17.405231 0.300495 1.853989 -18.413072 -0.000001 0.000000 0.000002 9.104505 -0.042997 -1.865101 0.142271 3.655842 -21.133859 0.386557 2.094686 -20.910479 0.283093 1.800920 -17.867587 0.000001 0.000001 0.000001 8.077795 -0.486900 -3.806301 0.951213 5.501417 -27.132976 0.268782 1.755920 -17.406384 0.241887 1.667699 -16.505536 0.000000 0.000001 -0.000000 -8.207800 -6.751710 -1.599544 0.603704 -10.384706 3.498357 7.413993 -9.751021 -3.277156 -3.692950 -1.648807 3.209429 -7.273475 0.000003 0.000000 -0.000001 0.000001 -0.000000 8.207800 -6.751704 -1.599544 -10.790148 14.736268 10.341575 12.169465 2.035885 4.165249 1.271653 0.512219 -7.110104 -4.933155 0.000001 -0.000000 0.000000 0.000001 0.000000 
0.150648 103.344925 1.382720 -3.831251 -5.159849 -3.715688 0.000000 10.181526 0.131525 3.623009 1.559730 2.747087 1.208230 0.336190 1.543643 1.185878 0.367318 1.542708 -0.000000 16.740356 -2.049021 5.722085 -0.091348 0.456780 0.000000 9.617876 1.684976 -6.733596 1.249432 -0.048896 -0.000001 22.037354 7.501076 -0.000000 0.000000 -0.000000 -4.569999 11.014857 -2.160840 1.183898 15.384646 14.683180 13.207855 27.361972 58.746238 -0.000005 7.273667 0.000013 -20.101658 -0.703097 6.706068 -2.464800 -1.573984 2.681911 -1.723537 -0.208230 -4.304929 12.697870 -29.768256 -16.110751 -2.646260 -1.527810 1.527818 -15.559051 -3.478748 -12.698834 -1.994586 -1.151584 1.151573 0.000001 -0.000002 -0.000002 -9.108320 -0.517870 2.259803 -0.390144 1.233691 6.767806 0.213593 -1.395591 17.401416 0.045607 -0.650924 8.016941 0.000003 -0.000001 -0.000001 -9.532492 -0.000000 0.000000 -0.139824 -2.187937 14.958925 0.213420 -1.395104 17.395175 0.238696 -1.473307 18.404635 0.000001 -0.000001 0.000001 -9.103602 -0.043095 -1.865102 0.044735 -3.112856 20.431362 0.308771 -1.669124 20.959636 0.226104 -1.434908 17.908201 0.000001 0.000000 0.000004 -8.076706 -0.486709 -3.806300 0.777485 -4.840564 26.446358 0.214705 -1.399184 17.447580 0.193181 -1.328777 16.543413 0.000001 0.000001 0.000000 4.570401 11.014676 -2.160814 1.040045 -17.483126 -12.320393 3.763141 -20.102293 -69.655246 0.000005 -1.524730 0.000012 -33.428807 -1.588247 -6.161245 2.466107 -1.576187 2.681702 -0.665274 2.158797 4.836131 11.857284 25.383283 17.045478 2.647881 -1.528767 1.528756 -13.814125 3.502793 9.038830 1.998921 -1.154068 1.154089 0.000000 0.000001 -0.000002 9.109305 -0.518012 2.259902 -0.401666 -0.883975 -7.531161 0.267806 1.752783 -17.374254 0.057218 0.817721 -8.005959 0.000001 -0.000000 -0.000000 9.533403 0.000003 0.000000 -0.069289 2.688167 -15.662884 0.267740 1.752577 -17.372168 0.299432 1.850776 -18.380007 -0.000000 -0.000001 -0.000000 9.104504 -0.043013 -1.865098 0.141533 3.652501 -21.100792 0.385345 2.091529 -20.877392 0.282060 1.797697 -17.834526 0.000000 0.000000 0.000001 8.077806 -0.486895 -3.806298 0.949403 5.498543 -27.099773 0.267770 1.752689 -17.373312 0.240921 1.664453 -16.472492 -0.000000 -0.000001 -0.000001 -8.207799 -6.751711 -1.599544 0.387246 -10.510603 3.335896 7.972857 -9.723756 -3.178906 -3.952505 -1.650359 3.207207 -7.233318 0.000002 0.000001 -0.000000 0.000000 0.000000 8.207799 -6.751722 -1.599544 -10.879394 14.701069 10.330627 12.470876 2.055160 4.138033 1.131065 0.452607 -7.071183 -4.953730 0.000002 -0.000001 -0.000000 -0.000001 0.000000 
0.139362 103.243607 1.301445 -3.853998 -5.087552 -3.638741 -0.000001 10.181556 0.131523 4.010272 1.612632 2.748844 1.276949 0.351750 1.543643 1.254765 0.380084 1.542709 -0.000001 16.740339 -2.049019 5.778583 -0.110241 0.456781 0.000001 9.617860 1.684972 -5.956150 1.098459 -0.073767 -0.000000 22.037369 7.501070 -0.000000 -0.000000 0.000000 -4.570001 11.014882 -2.160837 1.160564 15.449388 14.709799 13.079513 26.861186 58.749134 0.000007 7.912042 0.000023 -19.728513 -0.900411 6.602379 -2.464808 -1.573998 2.681910 -1.841831 -0.294478 -4.575693 12.668631 -29.568217 -16.062703 -2.646244 -1.527812 1.527814 -15.589316 -3.273516 -12.653802 -1.994574 -1.151587 1.151571 0.000002 -0.000002 -0.000004 -9.108301 -0.517875 2.259803 -0.387799 1.284930 6.655518 0.210622 -1.386147 17.279853 0.044254 -0.641157 7.895899 0.000002 0.000002 0.000005 -9.532502 0.000013 -0.000000 -0.150996 -2.135198 14.845059 0.210495 -1.385666 17.273671 0.235578 -1.463928 18.283288 0.000001 -0.000002 -0.000000 -9.103590 -0.043108 -1.865102 0.043494 -3.105885 20.345757 0.309695 -1.671537 20.991398 0.226891 -1.437370 17.939944 -0.000001 0.000000 0.000004 -8.076703 -0.486726 -3.806300 0.773647 -4.834690 26.360480 0.215476 -1.401637 17.479359 0.193934 -1.331268 16.575141 -0.000001 0.000006 0.000001 4.570400 11.014667 -2.160812 1.029684 -17.461636 -12.334472 3.908495 -19.988018 -69.364526 -0.000003 -2.534299 -0.000001 -33.481782 -1.637810 -5.704464 2.466093 -1.576193 2.681700 -0.665288 2.158804 4.836155 11.846162 25.290891 17.026644 2.647873 -1.528769 1.528750 -13.836110 3.411864 9.015985 1.998914 -1.154085 1.154077 0.000001 0.000003 -0.000002 9.109306 -0.518005 2.259900 -0.396219 -0.894589 -7.435293 0.264846 1.743321 -17.277448 0.055849 0.807944 -7.909668 -0.000001 -0.000000 0.000001 9.533397 -0.000010 0.000000 -0.069826 2.678085 -15.566643 0.264792 1.743150 -17.275778 0.296316 1.841409 -18.283636 -0.000000 -0.000000 0.000001 9.104502 -0.042995 -1.865100 0.139363 3.642767 -21.004421 0.381832 2.082309 -20.780962 0.279048 1.788303 -17.738165 0.000000 -0.000001 -0.000000 8.077806 -0.486891 -3.806301 0.944098 5.490165 -27.003003 0.264841 1.743270 -17.276955 0.238124 1.654984 -16.376149 -0.000000 -0.000001 0.000002 -8.207801 -6.751713 -1.599544 -0.295234 -10.664228 3.074482 9.283151 -9.729993 -3.052876 -4.559563 -1.649655 3.233859 -7.164775 0.000005 0.000001 -0.000001 0.000001 0.000000 8.207799 -6.751701 -1.599543 -11.298442 14.541507 10.363533 13.286160 2.096060 4.092012 0.733701 0.443401 -7.019372 -4.961214 0.000009 -0.000001 0.000000 -0.000000 -0.000000 
0.128621 103.095642 1.165817 -3.862790 -4.930904 -3.550166 -0.000001 10.181554 0.131524 4.524526 1.634556 2.772517 1.360852 0.359331 1.543643 1.338862 0.386113 1.542708 0.000001 16.740349 -2.049017 5.782746 -0.131326 0.456782 0.000002 9.617873 1.684978 -5.208206 0.946191 -0.169953 -0.000000 22.037399 7.501069 -0.000001 -0.000000 0.000000 -4.569998 11.014852 -2.160838 1.121600 15.552612 14.797456 12.822155 26.043494 58.670335 -0.000013 8.672269 0.000016 -19.028682 -1.180298 6.468714 -2.464790 -1.573991 2.681911 -2.022241 -0.424667 -4.989933 12.622382 -29.252823 -15.987192 -2.646262 -1.527820 1.527820 -15.631479 -2.948994 -12.582720 -1.994591 -1.151586 1.151573 0.000002 0.000002 -0.000000 -9.108305 -0.517872 2.259803 -0.383733 1.365718 6.478499 0.206011 -1.371235 17.088245 0.042131 -0.625764 7.705116 0.000002 -0.000000 -0.000001 -9.532502 0.000011 -0.000001 -0.168175 -2.051966 14.665579 0.205864 -1.370759 17.082100 0.230738 -1.449144 18.092025 -0.000001 0.000001 0.000003 -9.103601 -0.043100 -1.865102 0.041558 -3.094880 20.210864 0.311155 -1.675336 21.041446 0.228153 -1.441245 17.989981 0.000000 -0.000000 0.000001 -8.076703 -0.486725 -3.806299 0.767607 -4.825403 26.225150 0.216702 -1.405532 17.529383 0.195097 -1.335164 16.625188 0.000000 0.000000 0.000001 4.570399 11.014685 -2.160813 1.018074 -17.379843 -12.350587 3.871500 -19.850521 -69.078088 -0.000001 -3.557521 0.000000 -33.491211 -1.925917 -5.077316 2.466092 -1.576214 2.681699 -0.665269 2.158802 4.836138 11.829877 25.141863 16.990700 2.647881 -1.528749 1.528755 -13.870221 3.264782 8.979124 1.998929 -1.154077 1.154089 -0.000001 0.000003 -0.000002 9.109297 -0.518011 2.259900 -0.387405 -0.911704 -7.280554 0.260131 1.728036 -17.121189 0.053663 0.792169 -7.754260 -0.000001 -0.000000 0.000003 9.533392 0.000004 -0.000001 -0.070665 2.661801 -15.411342 0.260085 1.727934 -17.120177 0.291343 1.826283 -18.128128 0.000001 0.000001 -0.000006 9.104490 -0.042995 -1.865101 0.135907 3.627043 -20.848876 0.376204 2.067411 -20.625363 0.274221 1.773135 -17.582654 -0.000000 0.000001 0.000000 8.077803 -0.486896 -3.806302 0.935576 5.476619 -26.846861 0.260134 1.728061 -17.121442 0.233662 1.639711 -16.220637 0.000001 -0.000000 0.000001 -8.207800 -6.751697 -1.599544 -1.200536 -10.842673 2.780662 10.944538 -9.818622 -2.936828 -5.313136 -1.643850 3.285886 -7.051918 -0.000021 -0.000001 -0.000001 -0.000001 -0.000000 8.207796 -6.751699 -1.599543 -11.946724 14.279362 10.430027 14.453239 2.146216 4.025740 0.159516 0.412595 -6.980420 -4.965956 -0.000003 -0.000001 0.000001 -0.000000 0.000000 
